<?xml version="1.0" encoding="UTF-8"?>
<svg width="100px" height="100px" viewBox="0 0 100 100" version="1.1" xmlns="http://www.w3.org/2000/svg" xmlns:xlink="http://www.w3.org/1999/xlink">
    <!-- Generator: Sketch 63.1 (92452) - https://sketch.com -->
    <title>picker滚动选择器组件</title>
    <desc>Created with Sketch.</desc>
    <g id="picker滚动选择器组件" stroke="none" stroke-width="1" fill="none" fill-rule="evenodd">
        <g id="编组-2" transform="translate(5.000000, 37.000000)">
            <g id="按钮/正常态">
                <g id="2">
                    <g>
                        <rect id="矩形" stroke="#C8D2DE" stroke-width="0.5" fill="#FFFFFF" x="0.25" y="0.25" width="89.5" height="25.5" rx="1.5"></rect>
                        <path d="M7.39741935,18.4773333 L7.39741935,12.688 C7.74580645,13.1271111 8.15225806,13.7048889 8.6283871,14.4328889 L9.10451613,13.728 C8.53548387,13.0231111 7.96645161,12.376 7.39741935,11.7982222 L7.39741935,10.9084444 L8.74451613,10.9084444 L8.74451613,10.1111111 L7.39741935,10.1111111 L7.39741935,7.92711111 L6.57290323,7.92711111 L6.57290323,10.1111111 L5.15612903,10.1111111 L5.15612903,10.9084444 L6.57290323,10.9084444 C6.21290323,12.3644444 5.62064516,13.6702222 4.78451613,14.8026667 L5.14451613,15.704 C5.72516129,14.8026667 6.20129032,13.8088889 6.57290323,12.7226667 L6.57290323,18.4773333 L7.39741935,18.4773333 Z M14.8645161,9.37155556 L14.8645161,8.58577778 L9.56903226,8.58577778 L9.56903226,9.37155556 L14.8645161,9.37155556 Z M11.6012903,18.3617778 C12.2748387,18.3617778 12.6232258,18.0151111 12.6232258,17.3333333 L12.6232258,12.1911111 L15.4683871,12.1911111 L15.4683871,11.3937778 L8.95354839,11.3937778 L8.95354839,12.1911111 L11.7870968,12.1911111 L11.7870968,17.1253333 C11.7870968,17.4604444 11.6245161,17.6337778 11.3109677,17.6337778 C10.9741935,17.6337778 10.6258065,17.6106667 10.2541935,17.5875556 L10.4167742,18.3617778 L11.6012903,18.3617778 Z M14.7019355,17.6106667 L15.4567742,17.2755556 C15.1083871,15.7964444 14.6903226,14.3982222 14.2025806,13.0924444 L13.4477419,13.3351111 C13.9006452,14.5831111 14.3187097,16.0044444 14.7019355,17.6106667 Z M9.15096774,17.5066667 C9.84774194,16.328 10.3935484,14.9413333 10.7651613,13.3235556 L9.99870968,13.1502222 C9.67354839,14.5831111 9.15096774,15.8773333 8.43096774,17.0444444 L9.15096774,17.5066667 Z M21.1935484,12.376 L21.1935484,8.34311111 L17.2335484,8.34311111 L17.2335484,12.376 L21.1935484,12.376 Z M22.9006452,14.7102222 L22.9006452,10.7582222 L25.7109677,10.7582222 L25.7109677,14.7102222 L26.4890323,14.7102222 L26.4890323,10.0417778 L24.5729032,10.0417778 C24.6425806,9.74133333 24.6890323,9.44088889 24.723871,9.11733333 L26.8141935,9.11733333 L26.8141935,8.35466667 L21.7974194,8.35466667 L21.7974194,9.11733333 L23.9690323,9.11733333 C23.9341935,9.42933333 23.8877419,9.74133333 23.8180645,10.0417778 L22.1574194,10.0417778 L22.1574194,14.7102222 L22.9006452,14.7102222 Z M20.3806452,10.0533333 L18.0464516,10.0533333 L18.0464516,9.03644444 L20.3806452,9.03644444 L20.3806452,10.0533333 Z M20.3806452,11.6826667 L18.0464516,11.6826667 L18.0464516,10.7004444 L20.3806452,10.7004444 L20.3806452,11.6826667 Z M22.1225806,16.9982222 C23.0051613,16.6515556 23.6554839,16.1777778 24.0503226,15.5653333 C24.4451613,14.9066667 24.6658065,14.0284444 24.6890323,12.9306667 L24.6890323,11.3013333 L23.9225806,11.3013333 L23.9225806,12.9306667 C23.8993548,13.7973333 23.7251613,14.5022222 23.4232258,15.0453333 C23.0864516,15.5653333 22.5058065,15.9813333 21.6696774,16.2817778 L22.1225806,16.9982222 Z M16.9664516,18.5004444 C17.3380645,17.8764444 17.6283871,17.1946667 17.8374194,16.4551111 C18.3135484,17.1253333 18.8593548,17.5991111 19.4748387,17.8533333 C20.1329032,18.1370864 21.7128674,18.286845 24.2342971,18.3026091 L26.9767742,18.304 L27.116129,17.472 C26.6,17.4925432 25.8544803,17.5130864 24.8795699,17.517398 L24.5032258,17.5182222 C22.1225806,17.5182222 20.6012903,17.4142222 19.9277419,17.2062222 C19.8812903,17.1831111 19.8232258,17.16 19.7535484,17.1368889 L19.7535484,15.8773333 L21.3445161,15.8773333 L21.3445161,15.1377778 L19.7535484,15.1377778 L19.7535484,13.9128889 L21.6348387,13.9128889 L21.6348387,13.1502222 L16.7109677,13.1502222 L16.7109677,13.9128889 L19.0103226,13.9128889 L19.0103226,16.7208889 C18.6503226,16.4551111 18.3135484,16.0853333 18.0116129,15.6115556 C18.0696774,15.2648889 18.1045161,14.9066667 18.1277419,14.5137778 L17.3845161,14.4213333 C17.3264516,15.7386667 16.9896774,16.9173333 16.3625806,17.9688889 L16.9664516,18.5004444 Z M26.3612903,16.9866667 L26.9535484,16.4088889 C26.4658065,15.8542222 25.8619355,15.2995556 25.1419355,14.7448889 L24.5845161,15.2764444 C25.3393548,15.8773333 25.9316129,16.4551111 26.3612903,16.9866667 Z" id="标题" fill="#000000" fill-rule="nonzero"></path>
                        <path d="M43.0374194,12.2488889 L43.0374194,11.5555556 L39.8670968,11.5555556 L39.8670968,10.7697778 L42.3290323,10.7697778 L42.3290323,10.0995556 L39.8670968,10.0995556 L39.8670968,9.32533333 L42.7470968,9.32533333 L42.7470968,8.64355556 L39.8670968,8.64355556 L39.8670968,7.89244444 L39.0658065,7.89244444 L39.0658065,8.64355556 L36.2554839,8.64355556 L36.2554839,9.32533333 L39.0658065,9.32533333 L39.0658065,10.0995556 L36.72,10.0995556 L36.72,10.7697778 L39.0658065,10.7697778 L39.0658065,11.5555556 L35.9303226,11.5555556 L35.9303226,12.2488889 L43.0374194,12.2488889 Z M35.2219355,10.3537778 L35.7909677,9.776 C35.2567742,9.18666667 34.6064516,8.59733333 33.8283871,8.01955556 L33.236129,8.58577778 C34.0722581,9.20977778 34.7341935,9.79911111 35.2219355,10.3537778 Z M34.1419355,18.0844444 C34.8619355,17.5644444 35.5587097,16.9635556 36.2090323,16.2933333 L35.9883871,15.4151111 C35.5935484,15.8195556 35.2335484,16.1777778 34.8851613,16.5013333 L34.8851613,11.4284444 L32.4232258,11.4284444 L32.4232258,12.2257778 L34.083871,12.2257778 L34.083871,16.8133333 C34.083871,17.0097778 33.9909677,17.1831111 33.8167742,17.3448889 L34.1419355,18.0844444 Z M37.6141935,18.4888889 L37.6141935,16.6515556 L41.3651613,16.6515556 L41.3651613,17.3102222 C41.3651613,17.576 41.2141935,17.7146667 40.9354839,17.7146667 L40.0064516,17.68 L40.203871,18.4195556 L41.1793548,18.4195556 C41.8296774,18.4195556 42.1664516,18.1075556 42.1664516,17.4835556 L42.1664516,12.9768889 L36.8129032,12.9768889 L36.8129032,18.4888889 L37.6141935,18.4888889 Z M41.3651613,14.5137778 L37.6141935,14.5137778 L37.6141935,13.6586667 L41.3651613,13.6586667 L41.3651613,14.5137778 Z M41.3651613,16.0044444 L37.6141935,16.0044444 L37.6141935,15.1608889 L41.3651613,15.1608889 L41.3651613,16.0044444 Z M47.9496774,16.8364444 C49.0412903,16.2702222 49.7496774,15.5422222 50.0516129,14.664 C50.2490323,14.0862222 50.3651613,13.3928889 50.4,12.5955556 L51.5729032,12.5955556 L51.5729032,15.8773333 C51.5729032,16.1315556 51.6425806,16.3395556 51.8051613,16.5013333 C51.956129,16.6631111 52.1767742,16.744 52.4787097,16.744 L53.3148387,16.744 C53.7096774,16.7324444 53.9883871,16.64 54.1509677,16.4782222 C54.3251613,16.2933333 54.4529032,15.7271111 54.5225806,14.768 L53.7909677,14.5253333 C53.7445161,15.3457778 53.6516129,15.808 53.5122581,15.912 C53.4193548,15.9813333 53.3032258,16.016 53.1406452,16.016 L52.7225806,16.016 C52.4670968,16.016 52.3509677,15.9004444 52.3509677,15.6924444 L52.3509677,12.5955556 L54.3019355,12.5955556 L54.3019355,11.7866667 L51.5729032,11.7866667 L51.5729032,10.1342222 L53.8954839,10.1342222 L53.8954839,9.33688889 L51.5729032,9.33688889 L51.5729032,7.85777778 L50.76,7.85777778 L50.76,9.33688889 L49.2270968,9.33688889 C49.3664516,8.96711111 49.4941935,8.58577778 49.6103226,8.18133333 L48.8090323,8.01955556 C48.5303226,9.05955556 48.0774194,10.0186667 47.4503226,10.8853333 L48.1819355,11.336 C48.4374194,10.9662222 48.6696774,10.5733333 48.8787097,10.1342222 L50.76,10.1342222 L50.76,11.7866667 L47.7406452,11.7866667 L47.7406452,12.5955556 L49.6103226,12.5955556 C49.5754839,13.312 49.4593548,13.936 49.2619355,14.4444444 C48.96,15.1377778 48.3445161,15.7155556 47.403871,16.1777778 L47.9496774,16.8364444 Z M46.3935484,10.4577778 L46.9741935,9.88 C46.44,9.27911111 45.7896774,8.67822222 45.0116129,8.07733333 L44.4425806,8.62044444 C45.2670968,9.26755556 45.9174194,9.88 46.3935484,10.4577778 Z M44.7909677,18.5351111 C45.4412903,17.4488889 45.9058065,16.9173333 46.196129,16.9173333 C46.3354839,16.9173333 46.4864516,17.0097778 46.6490323,17.2062222 C47.0090323,17.6222222 47.4154839,17.9111111 47.8683871,18.0497778 C48.3329032,18.1768889 48.9483871,18.2462222 49.6916129,18.2577778 C50.4348387,18.2693333 51.1316129,18.2808889 51.7587097,18.2808889 L54.4529032,18.2808889 L54.6619355,17.4488889 C54.3483871,17.472 53.9070968,17.4835556 53.3496774,17.4951111 C52.7690323,17.5066667 52.2,17.5182222 51.6425806,17.5182222 C50.7367742,17.5182222 49.9703226,17.5066667 49.3664516,17.4951111 C48.6696774,17.472 48.1470968,17.3795556 47.7870968,17.2177778 C47.4619355,17.0675556 47.16,16.8248889 46.8812903,16.4897778 C46.7883871,16.3857778 46.6954839,16.2933333 46.6025806,16.224 L46.6025806,11.9022222 L44.1754839,11.9022222 L44.1754839,12.6648889 L45.8245161,12.6648889 L45.8245161,16.1777778 C45.3367742,16.3857778 44.7909677,16.9866667 44.163871,17.9688889 L44.7909677,18.5351111 Z M57.0425806,18.3848889 C57.7277419,18.3848889 58.076129,18.0497778 58.076129,17.3795556 L58.076129,14.0631111 C58.5290323,13.8782222 58.9703226,13.6817778 59.4,13.4737778 L59.4,12.6302222 C58.9587097,12.8497778 58.5174194,13.0577778 58.076129,13.2426667 L58.076129,10.9084444 L59.3767742,10.9084444 L59.3767742,10.1111111 L58.076129,10.1111111 L58.076129,7.92711111 L57.2167742,7.92711111 L57.2167742,10.1111111 L55.8,10.1111111 L55.8,10.9084444 L57.2167742,10.9084444 L57.2167742,13.5546667 C56.6941935,13.728 56.16,13.8782222 55.6141935,14.0053333 L55.8232258,14.8373333 C56.2877419,14.6986667 56.7522581,14.5484444 57.2167742,14.3866667 L57.2167742,17.16 C57.2167742,17.4604444 57.0541935,17.6222222 56.7522581,17.6222222 C56.4619355,17.6222222 56.16,17.5991111 55.8580645,17.576 L56.0322581,18.3848889 L57.0425806,18.3848889 Z M59.9458065,12.8613333 C61.0722581,12.584 62.0477419,12.2373333 62.8606452,11.7982222 C63.6967742,12.2835556 64.7651613,12.6186667 66.0425806,12.792 L66.3445161,12.0524444 C65.2877419,11.9137778 64.3819355,11.6711111 63.6387097,11.3244444 C64.5212903,10.7004444 65.1251613,9.94933333 65.4619355,9.048 L65.4619355,8.35466667 L59.9574194,8.35466667 L59.9574194,9.10577778 L60.5380645,9.10577778 C60.8632258,9.984 61.3858065,10.712 62.1174194,11.3013333 C61.3974194,11.648 60.5380645,11.9253333 59.5509677,12.1564444 L59.9458065,12.8613333 Z M62.8606452,10.8853333 C62.1754839,10.4231111 61.676129,9.82222222 61.3625806,9.10577778 L64.5793548,9.10577778 C64.2193548,9.79911111 63.6503226,10.3884444 62.8606452,10.8853333 Z M63.2903226,18.3733333 L63.2903226,16.5475556 L66.1703226,16.5475556 L66.1703226,15.7733333 L63.2903226,15.7733333 L63.2903226,14.456 L65.5780645,14.456 L65.5780645,13.6933333 L63.2903226,13.6933333 L63.2903226,12.6764444 L62.4774194,12.6764444 L62.4774194,13.6933333 L60.1548387,13.6933333 L60.1548387,14.456 L62.4774194,14.456 L62.4774194,15.7733333 L59.5625806,15.7733333 L59.5625806,16.5475556 L62.4774194,16.5475556 L62.4774194,18.3733333 L63.2903226,18.3733333 Z" id="请选择" fill="#8E8D8D" fill-rule="nonzero"></path>
                        <g id="arrow" transform="translate(71.129032, 2.888889)" fill="#C7C7CC">
                            <path d="M8.28823513,5.05555556 L13.0645161,10.1056037 L13.0550645,10.1145556 L13.0578343,10.1166185 L8.2815533,15.1666667 L7.25806452,14.0845135 L11.0180645,10.1075556 L7.26474634,6.13770874 L8.28823513,5.05555556 Z" id="形状结合"></path>
                        </g>
                    </g>
                </g>
            </g>
        </g>
    </g>
</svg>