<?xml version="1.0" encoding="UTF-8"?>
<svg width="70px" height="48px" viewBox="0 0 70 48" version="1.1" xmlns="http://www.w3.org/2000/svg" xmlns:xlink="http://www.w3.org/1999/xlink">
    <title>icon/RegionPicker</title>
    <defs>
        <path d="M12.5282787,8 L13.2353855,8.70710678 L10.698,11.244 L10.6997475,11.2451748 L9.99264069,11.9522816 L6.75,8.70964089 L7.45710678,8.0025341 L9.991,10.536 L12.5282787,8 Z" id="path-1"></path>
    </defs>
    <g id="icon/RegionPicker" stroke="none" stroke-width="1" fill="none" fill-rule="evenodd">
        <rect id="矩形备份" x="0" y="0" width="70" height="48"></rect>
        <g id="编组-16" transform="translate(9.000000, 19.000000)">
            <g id="编组" transform="translate(39.000000, 0.000000)">
                <g id="编组-4" transform="translate(-2.000000, -2.000000)">
                    <g id="编组-2备份" transform="translate(2.000000, 2.000000)">
                        <rect id="矩形" x="0" y="0" width="16" height="16"></rect>
                    </g>
                    <mask id="mask-2" fill="white">
                        <use xlink:href="#path-1"></use>
                    </mask>
                    <use id="形状结合" fill="#7C848E" xlink:href="#path-1"></use>
                    <g id="编组" mask="url(#mask-2)" fill="#292D33">
                        <g id="矩形">
                            <rect x="0" y="0" width="20" height="20"></rect>
                        </g>
                    </g>
                </g>
            </g>
            <path d="M8.78031663,13.2195309 C10.7034663,13.5616631 12,14.3091399 12,15.5 C12,17.2038013 9.34600442,18 6,18 C2.65399558,18 0,17.2038013 0,15.5 C0,14.3094289 1.29590446,13.5620259 3.21828326,13.21978 L3.29109825,13.3489121 L3.71584348,14.099323 L3.74985946,14.160115 C2.11864657,14.4071451 1,14.9143815 1,15.5 C1,16.3284271 3.23857625,17 6,17 C8.76142375,17 11,16.3284271 11,15.5 C11,14.9143815 9.88135343,14.4071451 8.25014054,14.160115 L8.28415652,14.099323 L8.3927643,13.9091086 L8.3927643,13.9091086 L8.49975765,13.7206371 L8.78031663,13.2195309 Z M6,-1.36779477e-13 C8.76142375,-1.36779477e-13 11,2.23857625 11,5 C11,6.84094917 9.33333333,10.5076158 6,16 C2.66666667,10.5076158 1,6.84094917 1,5 C1,2.23857625 3.23857625,-1.36779477e-13 6,-1.36779477e-13 Z M6,3 C4.8954305,3 4,3.8954305 4,5 C4,6.1045695 4.8954305,7 6,7 C7.1045695,7 8,6.1045695 8,5 C8,3.8954305 7.1045695,3 6,3 Z" id="形状结合" fill="#292D33" fill-rule="nonzero"></path>
            <polygon id="矩形备份-79" fill="#292D33" transform="translate(26.500000, 7.500000) scale(1, -1) translate(-26.500000, -7.500000) " points="14 7 39 7 39 8 14 8"></polygon>
        </g>
    </g>
</svg>