<?xml version="1.0" encoding="UTF-8"?>
<svg width="70px" height="48px" viewBox="0 0 70 48" version="1.1" xmlns="http://www.w3.org/2000/svg" xmlns:xlink="http://www.w3.org/1999/xlink">
    <title>icon/Web-View</title>
    <g id="icon/Web-View" stroke="none" stroke-width="1" fill="none" fill-rule="evenodd">
        <g id="编组">
            <rect id="矩形备份-189" x="0" y="0" width="70" height="48"></rect>
            <g id="编组-45" transform="translate(23.000000, 10.000000)">
                <path d="M24,8 L24.0011389,18.1986089 C23.673811,18.1325424 23.3398684,18.0823409 23.0004278,18.0489373 L23,8 L1,8 L1,32 L15.826,32 L15.427,33 L1.39444012e-12,33 L1.39444012e-12,0 L24,0 L24,8 Z M23,1 L1,1 L1,7 L23,7 L23,1 Z M21,3.5 L21,4.5 L12,4.5 L12,3.5 L21,3.5 Z" id="形状结合" fill="#BCBFC2" fill-rule="nonzero"></path>
                <path d="M22,19.5 C26.1557061,19.5 29.5,22.4261849 29.5,26 C29.5,29.5738151 26.1557061,32.5 22,32.5 C21.3761478,32.5006898 20.75483,32.4335171 20.1466682,32.2999054 L19.7834349,32.211777 L19.6166563,32.1674492 L16.912,33.326 L17.7064343,31.3417055 L17.3743412,31.1156634 L17.1525333,30.9587573 C15.4817767,29.7307557 14.5,27.9327975 14.5,26 C14.5,22.4261849 17.8442939,19.5 22,19.5 Z M22,20.5 C18.4166448,20.5 15.5,22.9675403 15.5,26 C15.5,29.0324597 18.4166448,31.5 22,31.5 C25.5833552,31.5 28.5,29.0324597 28.5,26 C28.5,22.9675403 25.5833552,20.5 22,20.5 Z M25.1321745,23.387935 C25.5237541,23.6189653 25.7588634,24.0445288 25.746,24.499 C25.7268729,25.1747711 25.1735417,25.7126623 24.4975,25.7126623 C23.8214583,25.7126623 23.2681271,25.1747711 23.249,24.499 C23.2361366,24.0445288 23.4712459,23.6189653 23.8628255,23.387935 C24.254405,23.1569048 24.740595,23.1569048 25.1321745,23.387935 Z M20.1361745,23.387935 C20.5277541,23.6189653 20.7628634,24.0445288 20.75,24.499 C20.7308729,25.1747711 20.1775417,25.7126623 19.5015,25.7126623 C18.8254583,25.7126623 18.2721271,25.1747711 18.253,24.499 C18.2401366,24.0445288 18.4752459,23.6189653 18.8668255,23.387935 C19.258405,23.1569048 19.744595,23.1569048 20.1361745,23.387935 Z M4,3 L4,5 L2,5 L2,3 L4,3 Z M7,3 L7,5 L5,5 L5,3 L7,3 Z M10,3 L10,5 L8,5 L8,3 L10,3 Z" id="形状结合" fill="#292D33"></path>
            </g>
        </g>
    </g>
</svg>