<?xml version="1.0" encoding="UTF-8"?>
<svg width="70px" height="48px" viewBox="0 0 70 48" version="1.1" xmlns="http://www.w3.org/2000/svg" xmlns:xlink="http://www.w3.org/1999/xlink">
    <title>icon/Slot</title>
    <g id="icon/Slot" stroke="none" stroke-width="1" fill="none" fill-rule="evenodd">
        <g id="编组">
            <rect id="矩形备份-182" x="0" y="0" width="70" height="48"></rect>
            <g id="编组-41" transform="translate(13.000000, 15.000000)">
                <path d="M7.5,24 L7.5,7 L8.5,7 L8.5,13.5 L12,13.5 L12,14.5 L8.5,14.5 L8.5,23 L12,23 L12,24 L7.5,24 Z M44,23 L44,24 L40,24 L40,23 L44,23 Z M36,23 L36,24 L32,24 L32,23 L36,23 Z M28,23 L28,24 L24,24 L24,23 L28,23 Z M20,23 L20,24 L16,24 L16,23 L20,23 Z M4,23 L4,24 L0,24 L0,23 L4,23 Z M8,0 C9.65685425,0 11,1.34314575 11,3 C11,4.65685425 9.65685425,6 8,6 C6.34314575,6 5,4.65685425 5,3 C5,1.34314575 6.34314575,0 8,0 Z M21,4 L21,5 L13,5 L13,4 L21,4 Z M28,1 L28,2 L13,2 L13,1 L28,1 Z" id="形状结合" fill="#BCBFC2"></path>
                <path d="M16,11 C17.6568542,11 19,12.3431458 19,14 C19,15.6568542 17.6568542,17 16,17 C14.3431458,17 13,15.6568542 13,14 C13,12.3431458 14.3431458,11 16,11 Z M28,15 L28,16 L20,16 L20,15 L28,15 Z M35,12 L35,13 L20,13 L20,12 L35,12 Z" id="形状结合" fill="#292D33"></path>
            </g>
        </g>
    </g>
</svg>