<?xml version="1.0" encoding="UTF-8"?>
<svg width="70px" height="48px" viewBox="0 0 70 48" version="1.1" xmlns="http://www.w3.org/2000/svg" xmlns:xlink="http://www.w3.org/1999/xlink">
    <title>icon/Audio</title>
    <g id="icon/Audio" stroke="none" stroke-width="1" fill="none" fill-rule="evenodd">
        <g id="编组-4">
            <rect id="矩形备份-161" x="0" y="0" width="70" height="48"></rect>
            <g id="编组-24" transform="translate(11.000000, 15.000000)">
                <path d="M47.5,0.5 L47.5,23.5 L0.5,23.5 L0.5,0.5 L47.5,0.5 Z" id="矩形备份-92" stroke="#BCBFC2"></path>
                <path d="M15,5 L15,19 L14,19 L14,5 L15,5 Z M33,5 L33,19 L32,19 L32,5 L33,5 Z M12,8 L12,16 L11,16 L11,8 L12,8 Z M18,8 L18,16 L17,16 L17,8 L18,8 Z M30,8 L30,16 L29,16 L29,8 L30,8 Z M36,8 L36,16 L35,16 L35,8 L36,8 Z M21,10 L21,14 L20,14 L20,10 L21,10 Z M9,10 L9,14 L8,14 L8,10 L9,10 Z M39,10 L39,14 L38,14 L38,10 L39,10 Z M27,10 L27,14 L26,14 L26,10 L27,10 Z M24,11 L24,13 L23,13 L23,11 L24,11 Z" id="形状结合" fill="#292D33"></path>
            </g>
        </g>
    </g>
</svg>