<?xml version="1.0" encoding="UTF-8"?>
<svg width="70px" height="48px" viewBox="0 0 70 48" version="1.1" xmlns="http://www.w3.org/2000/svg" xmlns:xlink="http://www.w3.org/1999/xlink">
    <title>icon/Switch</title>
    <g id="icon/Switch" stroke="none" stroke-width="1" fill="none" fill-rule="evenodd">
        <g id="编组-64">
            <rect id="矩形备份-145" x="0" y="0" width="70" height="48"></rect>
            <g id="编组-63" transform="translate(15.000000, 17.000000)">
                <path d="M30,0.5 C32.6233526,0.5 34.9983526,1.56332372 36.7175144,3.28248558 C38.4366763,5.00164744 39.5,7.37664744 39.5,10 C39.5,12.6233526 38.4366763,14.9983526 36.7175144,16.7175144 C34.9983526,18.4366763 32.6233526,19.5 30,19.5 L30,19.5 L10,19.5 C7.37664744,19.5 5.00164744,18.4366763 3.28248558,16.7175144 C1.56332372,14.9983526 0.5,12.6233526 0.5,10 C0.5,7.37664744 1.56332372,5.00164744 3.28248558,3.28248558 C5.00164744,1.56332372 7.37664744,0.5 10,0.5 L10,0.5 Z" id="矩形备份-124" stroke="#BCBFC2"></path>
                <circle id="椭圆形备份-4" fill="#292D33" cx="10" cy="10" r="7"></circle>
            </g>
        </g>
    </g>
</svg>