<?xml version="1.0" encoding="UTF-8"?>
<svg width="70px" height="48px" viewBox="0 0 70 48" version="1.1" xmlns="http://www.w3.org/2000/svg" xmlns:xlink="http://www.w3.org/1999/xlink">
    <title>icon/Rich-Text</title>
    <g id="icon/Rich-Text" stroke="none" stroke-width="1" fill="none" fill-rule="evenodd">
        <g id="编组">
            <rect id="矩形备份-179" x="0" y="0" width="70" height="48"></rect>
            <g id="编组-39" transform="translate(11.000000, 13.000000)">
                <path d="M36.5,0.5 C39.5375661,0.5 42.2875661,1.73121694 44.2781746,3.72182541 C46.2687831,5.71243388 47.5,8.46243388 47.5,11.5 C47.5,14.5375661 46.2687831,17.2875661 44.2781746,19.2781746 C42.2875661,21.2687831 39.5375661,22.5 36.5,22.5 L36.5,22.5 L28.7928932,22.5 L24,27.2928932 L19.2071068,22.5 L11.5,22.5 C8.46243388,22.5 5.71243388,21.2687831 3.72182541,19.2781746 C1.73121694,17.2875661 0.5,14.5375661 0.5,11.5 C0.5,8.46243388 1.73121694,5.71243388 3.72182541,3.72182541 C5.71243388,1.73121694 8.46243388,0.5 11.5,0.5 L11.5,0.5 Z" id="矩形备份-101" stroke="#BCBFC2"></path>
                <path d="M40,16.5 L40,17.5 L32,17.5 L32,16.5 L40,16.5 Z M27,6.5 L27,7.5 L24.952,7.5 L24.052,16.5 L26,16.5 L26,17.5 L21,17.5 L21,16.5 L23.047,16.5 L23.947,7.5 L22,7.5 L22,6.5 L27,6.5 Z M12.25,7 C13.7687831,7 15,8.23121694 15,9.75 C15,10.4995096 14.7001546,11.1789865 14.2138748,11.6750196 C15.2571187,12.0640191 16,13.0702549 16,14.25 C16,15.7687831 14.7687831,17 13.25,17 L8,17 L8,7 L12.25,7 Z M13.25,12.5 L9,12.5 L9,16 L13.25,16 C14.2164983,16 15,15.2164983 15,14.25 C15,13.3318266 14.2928897,12.5788077 13.3935272,12.5058012 L13.25,12.5 Z M33.5,7 L33.5,11.6875 C33.5,12.9571879 34.612333,14 36,14 C37.3321604,14 38.4105728,13.0389443 38.4947144,11.8387213 L38.5,11.6875 L38.5,7 L39.5,7 L39.5,11.6875 C39.5,13.5244139 37.9260415,15 36,15 C34.1381599,15 32.6053218,13.6211467 32.5052013,11.8699457 L32.5,11.6875 L32.5,7 L33.5,7 Z M12.25,8 L9,8 L9,11.5 L12.25,11.5 C13.2164983,11.5 14,10.7164983 14,9.75 C14,8.8318266 13.2928897,8.07880766 12.3935272,8.0058012 L12.25,8 Z" id="形状结合" fill="#292D33" fill-rule="nonzero"></path>
            </g>
        </g>
    </g>
</svg>