<?xml version="1.0" encoding="UTF-8"?>
<svg width="70px" height="48px" viewBox="0 0 70 48" version="1.1" xmlns="http://www.w3.org/2000/svg" xmlns:xlink="http://www.w3.org/1999/xlink">
    <title>icon/Canvas</title>
    <g id="icon/Canvas" stroke="none" stroke-width="1" fill="none" fill-rule="evenodd">
        <g id="编组-3">
            <rect id="矩形备份-174" x="0" y="0" width="70" height="48"></rect>
            <g id="编组-35" transform="translate(20.000000, 12.000000)">
                <path d="M4,-3.79702406e-15 L4,2.999 L26,2.999 L26,2.44310379e-16 L27,4.28007399e-16 L27,2.999 L30,3 L30,4 L27,3.999 L26.999,25.999 L30,26 L30,27 L26.999,26.999 L27,30 L26,30 L25.999,26.999 L3.999,26.999 L4,30 L3,30 L2.999,26.999 L0,27 L0,26 L2.999,25.999 L3,3.999 L0,4 L0,3 L3,2.999 L3,-3.98072108e-15 L4,-3.79702406e-15 Z M26,3.999 L4,3.999 L3.999,25.999 L25.999,25.999 L26,3.999 Z" id="形状结合备份-6" fill="#292D33"></path>
                <path d="M8,4 L8,6.999 L12,6.999 L12,4 L13,4 L13,6.999 L17,7 L17,4 L18,4 L18,7 L22,7 L22,4 L23,4 L23,7 L26,7 L26,8 L23,8 L23,12 L26,12 L26,13 L23,13 L23,17 L26,17 L26,18 L23,18 L23,22 L26,22 L26,23 L23,23 L23,26 L22,26 L22,23 L18,23 L18,26 L17,26 L17,23 L13,23 L13,26 L12,26 L12,23 L8,23 L8,26 L7,26 L7,23 L4,23 L4,22 L7,22 L7,17.999 L4,18 L4,17 L7,16.999 L7,12.999 L4,13 L4,12 L7,11.999 L7,7.999 L4,8 L4,7 L7,6.999 L7,4 L8,4 Z M8,17.999 L8,22 L12,22 L12,17.999 L8,17.999 Z M13,17.999 L13,22 L17,22 L17,18 L13,17.999 Z M18,18 L18,22 L22,22 L22,18 L18,18 Z M18,13 L18,17 L22,17 L22,13 L18,13 Z M13,12.999 L13,16.999 L17,17 L17,13 L13,12.999 Z M8,12.999 L8,16.999 L12,16.999 L12,12.999 L8,12.999 Z M18,8 L18,12 L22,12 L22,8 L18,8 Z M13,7.999 L13,11.999 L17,12 L17,8 L13,7.999 Z M8,7.999 L8,11.999 L12,11.999 L12,7.999 L8,7.999 Z" id="形状" fill="#BCBFC2"></path>
            </g>
        </g>
    </g>
</svg>