<?xml version="1.0" encoding="UTF-8"?>
<svg width="100px" height="100px" viewBox="0 0 100 100" version="1.1" xmlns="http://www.w3.org/2000/svg" xmlns:xlink="http://www.w3.org/1999/xlink">
    <!-- Generator: Sketch 63.1 (92452) - https://sketch.com -->
    <title>official-account 公众号关注组件</title>
    <desc>Created with Sketch.</desc>
    <g id="official-account-公众号关注组件" stroke="none" stroke-width="1" fill="none" fill-rule="evenodd">
        <rect id="矩形" stroke="#C8D2DE" stroke-width="0.5" fill="#FFFFFF" x="5.25" y="29.25" width="89.5" height="41.5" rx="1.5"></rect>
        <text id="公众号关注" font-family="PingFangSC-Medium, PingFang SC" font-size="9" font-weight="400" fill="#6F7B89">
            <tspan x="38" y="53">公众号关注</tspan>
        </text>
        <g id="编组" transform="translate(13.000000, 40.000000)">
            <path d="M17.419523,20 L2.580477,20 C1.16251792,20 0,18.8400886 0,17.419523 L0,2.580477 C0,1.16251792 1.16251792,0 2.580477,0 L17.419523,0 C18.8400886,0 20,1.16251792 20,2.580477 L20,17.419523 C20,18.8400886 18.8400886,20 17.419523,20 Z" id="路径" fill="#1D7FFD"></path>
            <path d="M13.7797812,11.9813318 L11.7814733,11.2139872 C11.7814733,11.2139872 11.3968933,11.0610198 11.2435641,10.933129 C11.1405067,10.8303149 11.1656426,10.6271942 11.2435641,10.3438284 C11.3214855,10.0629702 12.3445186,8.91195319 12.3445186,7.88882697 C12.3445186,6.3039844 11.2938359,5 9.98676667,5 C8.67969739,5 7.62901477,6.3039844 7.62901477,7.88882697 C7.62901477,8.88687657 8.5263681,10.0629702 8.65456144,10.2660908 C8.75761882,10.4717191 8.73248288,10.8027306 8.65456144,10.9055447 C8.5263681,11.0585121 8.03873072,11.2114795 8.03873072,11.2114795 L6.24402405,12.0039008 C5.8343081,12.1568682 5.5,12.5405405 5.5,13.0019504 L5.5,13.2075787 C5.5,13.6940652 5.88458,14 6.37221739,14 L13.6264519,14 C14.1140893,14 14.4986693,13.6940652 14.4986693,13.2075787 L14.4986693,13.0019504 C14.5238052,12.5430482 14.1894971,12.1342992 13.7797812,11.9813318 L13.7797812,11.9813318 Z M10.0119026,13.1574255 L9.52426523,12.4678183 L10.0119026,11.0860964 L10.49954,12.4678183 L10.0119026,13.1574255 Z" id="形状" fill="#FFFFFF" fill-rule="nonzero"></path>
        </g>
    </g>
</svg>