<?xml version="1.0" encoding="UTF-8"?>
<svg width="70px" height="48px" viewBox="0 0 70 48" version="1.1" xmlns="http://www.w3.org/2000/svg" xmlns:xlink="http://www.w3.org/1999/xlink">
    <title>icon/Slider</title>
    <g id="icon/Slider" stroke="none" stroke-width="1" fill="none" fill-rule="evenodd">
        <g id="Slider">
            <polygon id="矩形" points="0 2.47968313e-13 70 2.47968313e-13 70 48 0 48"></polygon>
            <g id="编组-5" transform="translate(11.000000, 22.500000)">
                <polygon id="矩形" fill="#BCBFC2" points="34 4.5 48 4.5 48 5.5 34 5.5"></polygon>
                <polygon id="矩形" fill="#292D33" points="0 4.5 25 4.5 25 5.5 0 5.5"></polygon>
                <path d="M29.5,0 C26.7385763,0 24.5,2.23857625 24.5,5 C24.5,7.76142375 26.7385763,10 29.5,10 C32.2614237,10 34.5,7.76142375 34.5,5 C34.5,2.23857625 32.2614237,0 29.5,0 Z M29.5,1 C31.709139,1 33.5,2.790861 33.5,5 C33.5,7.209139 31.709139,9 29.5,9 C27.290861,9 25.5,7.209139 25.5,5 C25.5,2.790861 27.290861,1 29.5,1 Z" id="椭圆形" fill="#292D33" fill-rule="nonzero"></path>
            </g>
        </g>
    </g>
</svg>