<?xml version="1.0" encoding="UTF-8"?>
<svg width="100px" height="100px" viewBox="0 0 100 100" version="1.1" xmlns="http://www.w3.org/2000/svg" xmlns:xlink="http://www.w3.org/1999/xlink">
    <!-- Generator: Sketch 63.1 (92452) - https://sketch.com -->
    <title>input单行文本输入框</title>
    <desc>Created with Sketch.</desc>
    <g id="input单行文本输入框" stroke="none" stroke-width="1" fill="none" fill-rule="evenodd">
        <g id="编组-2" transform="translate(5.000000, 24.000000)">
            <g id="按钮/正常态">
                <g id="2">
                    <g>
                        <path d="M88.5,0.25 L1.5,0.25 C1.15482203,0.25 0.842322031,0.389911016 0.616116524,0.616116524 C0.389911016,0.842322031 0.25,1.15482203 0.25,1.5 L0.25,25.75 L89.75,25.75 L89.75,1.5 C89.75,1.15482203 89.610089,0.842322031 89.3838835,0.616116524 C89.157678,0.389911016 88.845178,0.25 88.5,0.25 Z" id="矩形" stroke="#C8D2DE" stroke-width="0.5" fill="#FFFFFF"></path>
                        <path d="M7.39741935,18.4773333 L7.39741935,12.688 C7.74580645,13.1271111 8.15225806,13.7048889 8.6283871,14.4328889 L9.10451613,13.728 C8.53548387,13.0231111 7.96645161,12.376 7.39741935,11.7982222 L7.39741935,10.9084444 L8.74451613,10.9084444 L8.74451613,10.1111111 L7.39741935,10.1111111 L7.39741935,7.92711111 L6.57290323,7.92711111 L6.57290323,10.1111111 L5.15612903,10.1111111 L5.15612903,10.9084444 L6.57290323,10.9084444 C6.21290323,12.3644444 5.62064516,13.6702222 4.78451613,14.8026667 L5.14451613,15.704 C5.72516129,14.8026667 6.20129032,13.8088889 6.57290323,12.7226667 L6.57290323,18.4773333 L7.39741935,18.4773333 Z M14.8645161,9.37155556 L14.8645161,8.58577778 L9.56903226,8.58577778 L9.56903226,9.37155556 L14.8645161,9.37155556 Z M11.6012903,18.3617778 C12.2748387,18.3617778 12.6232258,18.0151111 12.6232258,17.3333333 L12.6232258,12.1911111 L15.4683871,12.1911111 L15.4683871,11.3937778 L8.95354839,11.3937778 L8.95354839,12.1911111 L11.7870968,12.1911111 L11.7870968,17.1253333 C11.7870968,17.4604444 11.6245161,17.6337778 11.3109677,17.6337778 C10.9741935,17.6337778 10.6258065,17.6106667 10.2541935,17.5875556 L10.4167742,18.3617778 L11.6012903,18.3617778 Z M14.7019355,17.6106667 L15.4567742,17.2755556 C15.1083871,15.7964444 14.6903226,14.3982222 14.2025806,13.0924444 L13.4477419,13.3351111 C13.9006452,14.5831111 14.3187097,16.0044444 14.7019355,17.6106667 Z M9.15096774,17.5066667 C9.84774194,16.328 10.3935484,14.9413333 10.7651613,13.3235556 L9.99870968,13.1502222 C9.67354839,14.5831111 9.15096774,15.8773333 8.43096774,17.0444444 L9.15096774,17.5066667 Z M21.1935484,12.376 L21.1935484,8.34311111 L17.2335484,8.34311111 L17.2335484,12.376 L21.1935484,12.376 Z M22.9006452,14.7102222 L22.9006452,10.7582222 L25.7109677,10.7582222 L25.7109677,14.7102222 L26.4890323,14.7102222 L26.4890323,10.0417778 L24.5729032,10.0417778 C24.6425806,9.74133333 24.6890323,9.44088889 24.723871,9.11733333 L26.8141935,9.11733333 L26.8141935,8.35466667 L21.7974194,8.35466667 L21.7974194,9.11733333 L23.9690323,9.11733333 C23.9341935,9.42933333 23.8877419,9.74133333 23.8180645,10.0417778 L22.1574194,10.0417778 L22.1574194,14.7102222 L22.9006452,14.7102222 Z M20.3806452,10.0533333 L18.0464516,10.0533333 L18.0464516,9.03644444 L20.3806452,9.03644444 L20.3806452,10.0533333 Z M20.3806452,11.6826667 L18.0464516,11.6826667 L18.0464516,10.7004444 L20.3806452,10.7004444 L20.3806452,11.6826667 Z M22.1225806,16.9982222 C23.0051613,16.6515556 23.6554839,16.1777778 24.0503226,15.5653333 C24.4451613,14.9066667 24.6658065,14.0284444 24.6890323,12.9306667 L24.6890323,11.3013333 L23.9225806,11.3013333 L23.9225806,12.9306667 C23.8993548,13.7973333 23.7251613,14.5022222 23.4232258,15.0453333 C23.0864516,15.5653333 22.5058065,15.9813333 21.6696774,16.2817778 L22.1225806,16.9982222 Z M16.9664516,18.5004444 C17.3380645,17.8764444 17.6283871,17.1946667 17.8374194,16.4551111 C18.3135484,17.1253333 18.8593548,17.5991111 19.4748387,17.8533333 C20.1329032,18.1370864 21.7128674,18.286845 24.2342971,18.3026091 L26.9767742,18.304 L27.116129,17.472 C26.6,17.4925432 25.8544803,17.5130864 24.8795699,17.517398 L24.5032258,17.5182222 C22.1225806,17.5182222 20.6012903,17.4142222 19.9277419,17.2062222 C19.8812903,17.1831111 19.8232258,17.16 19.7535484,17.1368889 L19.7535484,15.8773333 L21.3445161,15.8773333 L21.3445161,15.1377778 L19.7535484,15.1377778 L19.7535484,13.9128889 L21.6348387,13.9128889 L21.6348387,13.1502222 L16.7109677,13.1502222 L16.7109677,13.9128889 L19.0103226,13.9128889 L19.0103226,16.7208889 C18.6503226,16.4551111 18.3135484,16.0853333 18.0116129,15.6115556 C18.0696774,15.2648889 18.1045161,14.9066667 18.1277419,14.5137778 L17.3845161,14.4213333 C17.3264516,15.7386667 16.9896774,16.9173333 16.3625806,17.9688889 L16.9664516,18.5004444 Z M26.3612903,16.9866667 L26.9535484,16.4088889 C26.4658065,15.8542222 25.8619355,15.2995556 25.1419355,14.7448889 L24.5845161,15.2764444 C25.3393548,15.8773333 25.9316129,16.4551111 26.3612903,16.9866667 Z" id="标题" fill="#000000" fill-rule="nonzero"></path>
                        <path d="M43.0374194,12.2488889 L43.0374194,11.5555556 L39.8670968,11.5555556 L39.8670968,10.7697778 L42.3290323,10.7697778 L42.3290323,10.0995556 L39.8670968,10.0995556 L39.8670968,9.32533333 L42.7470968,9.32533333 L42.7470968,8.64355556 L39.8670968,8.64355556 L39.8670968,7.89244444 L39.0658065,7.89244444 L39.0658065,8.64355556 L36.2554839,8.64355556 L36.2554839,9.32533333 L39.0658065,9.32533333 L39.0658065,10.0995556 L36.72,10.0995556 L36.72,10.7697778 L39.0658065,10.7697778 L39.0658065,11.5555556 L35.9303226,11.5555556 L35.9303226,12.2488889 L43.0374194,12.2488889 Z M35.2219355,10.3537778 L35.7909677,9.776 C35.2567742,9.18666667 34.6064516,8.59733333 33.8283871,8.01955556 L33.236129,8.58577778 C34.0722581,9.20977778 34.7341935,9.79911111 35.2219355,10.3537778 Z M34.1419355,18.0844444 C34.8619355,17.5644444 35.5587097,16.9635556 36.2090323,16.2933333 L35.9883871,15.4151111 C35.5935484,15.8195556 35.2335484,16.1777778 34.8851613,16.5013333 L34.8851613,11.4284444 L32.4232258,11.4284444 L32.4232258,12.2257778 L34.083871,12.2257778 L34.083871,16.8133333 C34.083871,17.0097778 33.9909677,17.1831111 33.8167742,17.3448889 L34.1419355,18.0844444 Z M37.6141935,18.4888889 L37.6141935,16.6515556 L41.3651613,16.6515556 L41.3651613,17.3102222 C41.3651613,17.576 41.2141935,17.7146667 40.9354839,17.7146667 L40.0064516,17.68 L40.203871,18.4195556 L41.1793548,18.4195556 C41.8296774,18.4195556 42.1664516,18.1075556 42.1664516,17.4835556 L42.1664516,12.9768889 L36.8129032,12.9768889 L36.8129032,18.4888889 L37.6141935,18.4888889 Z M41.3651613,14.5137778 L37.6141935,14.5137778 L37.6141935,13.6586667 L41.3651613,13.6586667 L41.3651613,14.5137778 Z M41.3651613,16.0044444 L37.6141935,16.0044444 L37.6141935,15.1608889 L41.3651613,15.1608889 L41.3651613,16.0044444 Z M46.9858065,18.4888889 L46.9858065,15.9235556 L48.0890323,15.6462222 L48.0890323,14.8604444 C47.7406452,14.9528889 47.3806452,15.0453333 46.9858065,15.1377778 L46.9858065,13.5777778 L48.0541935,13.5777778 L48.0541935,12.8266667 L46.9858065,12.8266667 L46.9858065,11.1048889 L46.2077419,11.1048889 L46.2077419,12.8266667 L45.0580645,12.8266667 C45.3483871,12.0871111 45.6154839,11.2435556 45.8709677,10.296 L48.1122581,10.296 L48.1122581,9.51022222 L46.0683871,9.51022222 C46.1729032,9.048 46.2774194,8.55111111 46.3819355,8.03111111 L45.6154839,7.85777778 C45.5109677,8.43555556 45.4064516,8.97866667 45.2903226,9.51022222 L44.1406452,9.51022222 L44.1406452,10.296 L45.1045161,10.296 C44.8374194,11.3244444 44.5470968,12.1911111 44.2219355,12.8844444 L44.396129,13.5777778 L46.2077419,13.5777778 L46.2077419,15.2995556 C45.5341935,15.4266667 44.8141935,15.5422222 44.0477419,15.6346667 L44.1522581,16.4435556 C44.8606452,16.3395556 45.5458065,16.224 46.2077419,16.0968889 L46.2077419,18.4888889 L46.9858065,18.4888889 Z M48.2980645,11.648 C48.7509677,11.3013333 49.1922581,10.92 49.6335484,10.5155556 L49.6335484,11.1973333 L52.9664516,11.1973333 L52.9664516,10.504 L49.6451613,10.504 C50.2258065,9.94933333 50.7832258,9.33688889 51.3406452,8.66666667 C52.2232258,9.79911111 53.2103226,10.7582222 54.3019355,11.544 L54.7432258,10.8853333 C53.6864516,10.1457778 52.6529032,9.16355556 51.6425806,7.91555556 L51.0387097,7.91555556 C50.0980645,9.07111111 49.0296774,10.088 47.8451613,10.9546667 L48.2980645,11.648 Z M53.2683871,18.4311111 C53.8258065,18.4311111 54.116129,18.096 54.116129,17.4373333 L54.116129,11.9253333 L53.3845161,11.9253333 L53.3845161,17.2524444 C53.3845161,17.576 53.2567742,17.7493333 53.0129032,17.7493333 C52.7225806,17.7493333 52.4206452,17.7262222 52.1070968,17.7031111 L52.2812903,18.4311111 L53.2683871,18.4311111 Z M49.2967742,18.4888889 L49.2967742,16.328 L50.5974194,16.328 L50.5974194,17.368 C50.5974194,17.6222222 50.4696774,17.7493333 50.2141935,17.7493333 L49.7032258,17.7262222 L49.8890323,18.408 L50.4464516,18.408 C51.0154839,18.408 51.3058065,18.1075556 51.3058065,17.5182222 L51.3058065,12.1217778 L48.5651613,12.1217778 L48.5651613,18.4888889 L49.2967742,18.4888889 Z M52.6529032,16.5937778 L52.6529032,12.4453333 L52.0025806,12.4453333 L52.0025806,16.5937778 L52.6529032,16.5937778 Z M50.5974194,13.936 L49.2967742,13.936 L49.2967742,12.792 L50.5974194,12.792 L50.5974194,13.936 Z M50.5974194,15.6808889 L49.2967742,15.6808889 L49.2967742,14.5831111 L50.5974194,14.5831111 L50.5974194,15.6808889 Z M56.1135484,18.3271111 C58.5522581,16.7555556 60.1548387,14.4906667 60.9212903,11.544 C60.9793548,11.6826667 61.0374194,11.8444444 61.1070968,12.0293333 C62.3032258,15.08 63.836129,17.1831111 65.7174194,18.3155556 L66.24,17.6453333 C64.4051613,16.5013333 62.9535484,14.5484444 61.8619355,11.7866667 C61.1419355,9.91466667 60.2709677,8.60888889 59.2374194,7.89244444 L58.5406452,8.33155556 C59.283871,8.86311111 59.9225806,9.60266667 60.4567742,10.5733333 C59.7135484,13.6471111 58.0993548,16.0044444 55.6141935,17.6222222 L56.1135484,18.3271111 Z" id="请输入" fill="#8E8D8D" fill-rule="nonzero"></path>
                    </g>
                </g>
            </g>
            <g id="编组" transform="translate(0.000000, 26.000000)">
                <g id="按钮/正常态">
                    <g id="2">
                        <g>
                            <path d="M89.75,0.25 L0.25,0.25 L0.25,24.5 C0.25,24.845178 0.389911016,25.157678 0.616116524,25.3838835 C0.842322031,25.610089 1.15482203,25.75 1.5,25.75 L88.5,25.75 C88.845178,25.75 89.157678,25.610089 89.3838835,25.3838835 C89.610089,25.157678 89.75,24.845178 89.75,24.5 L89.75,0.25 Z" id="矩形" stroke="#C8D2DE" stroke-width="0.5" fill="#FFFFFF"></path>
                            <path d="M7.39741935,18.4773333 L7.39741935,12.688 C7.74580645,13.1271111 8.15225806,13.7048889 8.6283871,14.4328889 L9.10451613,13.728 C8.53548387,13.0231111 7.96645161,12.376 7.39741935,11.7982222 L7.39741935,10.9084444 L8.74451613,10.9084444 L8.74451613,10.1111111 L7.39741935,10.1111111 L7.39741935,7.92711111 L6.57290323,7.92711111 L6.57290323,10.1111111 L5.15612903,10.1111111 L5.15612903,10.9084444 L6.57290323,10.9084444 C6.21290323,12.3644444 5.62064516,13.6702222 4.78451613,14.8026667 L5.14451613,15.704 C5.72516129,14.8026667 6.20129032,13.8088889 6.57290323,12.7226667 L6.57290323,18.4773333 L7.39741935,18.4773333 Z M14.8645161,9.37155556 L14.8645161,8.58577778 L9.56903226,8.58577778 L9.56903226,9.37155556 L14.8645161,9.37155556 Z M11.6012903,18.3617778 C12.2748387,18.3617778 12.6232258,18.0151111 12.6232258,17.3333333 L12.6232258,12.1911111 L15.4683871,12.1911111 L15.4683871,11.3937778 L8.95354839,11.3937778 L8.95354839,12.1911111 L11.7870968,12.1911111 L11.7870968,17.1253333 C11.7870968,17.4604444 11.6245161,17.6337778 11.3109677,17.6337778 C10.9741935,17.6337778 10.6258065,17.6106667 10.2541935,17.5875556 L10.4167742,18.3617778 L11.6012903,18.3617778 Z M14.7019355,17.6106667 L15.4567742,17.2755556 C15.1083871,15.7964444 14.6903226,14.3982222 14.2025806,13.0924444 L13.4477419,13.3351111 C13.9006452,14.5831111 14.3187097,16.0044444 14.7019355,17.6106667 Z M9.15096774,17.5066667 C9.84774194,16.328 10.3935484,14.9413333 10.7651613,13.3235556 L9.99870968,13.1502222 C9.67354839,14.5831111 9.15096774,15.8773333 8.43096774,17.0444444 L9.15096774,17.5066667 Z M21.1935484,12.376 L21.1935484,8.34311111 L17.2335484,8.34311111 L17.2335484,12.376 L21.1935484,12.376 Z M22.9006452,14.7102222 L22.9006452,10.7582222 L25.7109677,10.7582222 L25.7109677,14.7102222 L26.4890323,14.7102222 L26.4890323,10.0417778 L24.5729032,10.0417778 C24.6425806,9.74133333 24.6890323,9.44088889 24.723871,9.11733333 L26.8141935,9.11733333 L26.8141935,8.35466667 L21.7974194,8.35466667 L21.7974194,9.11733333 L23.9690323,9.11733333 C23.9341935,9.42933333 23.8877419,9.74133333 23.8180645,10.0417778 L22.1574194,10.0417778 L22.1574194,14.7102222 L22.9006452,14.7102222 Z M20.3806452,10.0533333 L18.0464516,10.0533333 L18.0464516,9.03644444 L20.3806452,9.03644444 L20.3806452,10.0533333 Z M20.3806452,11.6826667 L18.0464516,11.6826667 L18.0464516,10.7004444 L20.3806452,10.7004444 L20.3806452,11.6826667 Z M22.1225806,16.9982222 C23.0051613,16.6515556 23.6554839,16.1777778 24.0503226,15.5653333 C24.4451613,14.9066667 24.6658065,14.0284444 24.6890323,12.9306667 L24.6890323,11.3013333 L23.9225806,11.3013333 L23.9225806,12.9306667 C23.8993548,13.7973333 23.7251613,14.5022222 23.4232258,15.0453333 C23.0864516,15.5653333 22.5058065,15.9813333 21.6696774,16.2817778 L22.1225806,16.9982222 Z M16.9664516,18.5004444 C17.3380645,17.8764444 17.6283871,17.1946667 17.8374194,16.4551111 C18.3135484,17.1253333 18.8593548,17.5991111 19.4748387,17.8533333 C20.1329032,18.1370864 21.7128674,18.286845 24.2342971,18.3026091 L26.9767742,18.304 L27.116129,17.472 C26.6,17.4925432 25.8544803,17.5130864 24.8795699,17.517398 L24.5032258,17.5182222 C22.1225806,17.5182222 20.6012903,17.4142222 19.9277419,17.2062222 C19.8812903,17.1831111 19.8232258,17.16 19.7535484,17.1368889 L19.7535484,15.8773333 L21.3445161,15.8773333 L21.3445161,15.1377778 L19.7535484,15.1377778 L19.7535484,13.9128889 L21.6348387,13.9128889 L21.6348387,13.1502222 L16.7109677,13.1502222 L16.7109677,13.9128889 L19.0103226,13.9128889 L19.0103226,16.7208889 C18.6503226,16.4551111 18.3135484,16.0853333 18.0116129,15.6115556 C18.0696774,15.2648889 18.1045161,14.9066667 18.1277419,14.5137778 L17.3845161,14.4213333 C17.3264516,15.7386667 16.9896774,16.9173333 16.3625806,17.9688889 L16.9664516,18.5004444 Z M26.3612903,16.9866667 L26.9535484,16.4088889 C26.4658065,15.8542222 25.8619355,15.2995556 25.1419355,14.7448889 L24.5845161,15.2764444 C25.3393548,15.8773333 25.9316129,16.4551111 26.3612903,16.9866667 Z" id="标题" fill="#000000" fill-rule="nonzero"></path>
                            <g id="请输入-2" transform="translate(32.423226, 7.857778)" fill="#8E8D8D" fill-rule="nonzero">
                                <path d="M10.6141935,4.39111111 L10.6141935,3.69777778 L7.44387097,3.69777778 L7.44387097,2.912 L9.90580645,2.912 L9.90580645,2.24177778 L7.44387097,2.24177778 L7.44387097,1.46755556 L10.323871,1.46755556 L10.323871,0.785777778 L7.44387097,0.785777778 L7.44387097,0.0346666667 L6.64258065,0.0346666667 L6.64258065,0.785777778 L3.83225806,0.785777778 L3.83225806,1.46755556 L6.64258065,1.46755556 L6.64258065,2.24177778 L4.29677419,2.24177778 L4.29677419,2.912 L6.64258065,2.912 L6.64258065,3.69777778 L3.50709677,3.69777778 L3.50709677,4.39111111 L10.6141935,4.39111111 Z M2.79870968,2.496 L3.36774194,1.91822222 C2.83354839,1.32888889 2.18322581,0.739555556 1.40516129,0.161777778 L0.812903226,0.728 C1.64903226,1.352 2.31096774,1.94133333 2.79870968,2.496 Z M1.71870968,10.2266667 C2.43870968,9.70666667 3.13548387,9.10577778 3.78580645,8.43555556 L3.56516129,7.55733333 C3.17032258,7.96177778 2.81032258,8.32 2.46193548,8.64355556 L2.46193548,3.57066667 L-5.15716502e-14,3.57066667 L-5.15716502e-14,4.368 L1.66064516,4.368 L1.66064516,8.95555556 C1.66064516,9.152 1.56774194,9.32533333 1.39354839,9.48711111 L1.71870968,10.2266667 Z M5.19096774,10.6311111 L5.19096774,8.79377778 L8.94193548,8.79377778 L8.94193548,9.45244444 C8.94193548,9.71822222 8.79096774,9.85688889 8.51225806,9.85688889 L7.58322581,9.82222222 L7.78064516,10.5617778 L8.75612903,10.5617778 C9.40645161,10.5617778 9.74322581,10.2497778 9.74322581,9.62577778 L9.74322581,5.11911111 L4.38967742,5.11911111 L4.38967742,10.6311111 L5.19096774,10.6311111 Z M8.94193548,6.656 L5.19096774,6.656 L5.19096774,5.80088889 L8.94193548,5.80088889 L8.94193548,6.656 Z M8.94193548,8.14666667 L5.19096774,8.14666667 L5.19096774,7.30311111 L8.94193548,7.30311111 L8.94193548,8.14666667 Z M14.5625806,10.6311111 L14.5625806,8.06577778 L15.6658065,7.78844444 L15.6658065,7.00266667 C15.3174194,7.09511111 14.9574194,7.18755556 14.5625806,7.28 L14.5625806,5.72 L15.6309677,5.72 L15.6309677,4.96888889 L14.5625806,4.96888889 L14.5625806,3.24711111 L13.7845161,3.24711111 L13.7845161,4.96888889 L12.6348387,4.96888889 C12.9251613,4.22933333 13.1922581,3.38577778 13.4477419,2.43822222 L15.6890323,2.43822222 L15.6890323,1.65244444 L13.6451613,1.65244444 C13.7496774,1.19022222 13.8541935,0.693333333 13.9587097,0.173333333 L13.1922581,-2.56584877e-15 C13.0877419,0.577777778 12.9832258,1.12088889 12.8670968,1.65244444 L11.7174194,1.65244444 L11.7174194,2.43822222 L12.6812903,2.43822222 C12.4141935,3.46666667 12.123871,4.33333333 11.7987097,5.02666667 L11.9729032,5.72 L13.7845161,5.72 L13.7845161,7.44177778 C13.1109677,7.56888889 12.3909677,7.68444444 11.6245161,7.77688889 L11.7290323,8.58577778 C12.4374194,8.48177778 13.1225806,8.36622222 13.7845161,8.23911111 L13.7845161,10.6311111 L14.5625806,10.6311111 Z M15.8748387,3.79022222 C16.3277419,3.44355556 16.7690323,3.06222222 17.2103226,2.65777778 L17.2103226,3.33955556 L20.5432258,3.33955556 L20.5432258,2.64622222 L17.2219355,2.64622222 C17.8025806,2.09155556 18.36,1.47911111 18.9174194,0.808888889 C19.8,1.94133333 20.7870968,2.90044444 21.8787097,3.68622222 L22.32,3.02755556 C21.2632258,2.288 20.2296774,1.30577778 19.2193548,0.0577777778 L18.6154839,0.0577777778 C17.6748387,1.21333333 16.6064516,2.23022222 15.4219355,3.09688889 L15.8748387,3.79022222 Z M20.8451613,10.5733333 C21.4025806,10.5733333 21.6929032,10.2382222 21.6929032,9.57955556 L21.6929032,4.06755556 L20.9612903,4.06755556 L20.9612903,9.39466667 C20.9612903,9.71822222 20.8335484,9.89155556 20.5896774,9.89155556 C20.2993548,9.89155556 19.9974194,9.86844444 19.683871,9.84533333 L19.8580645,10.5733333 L20.8451613,10.5733333 Z M16.8735484,10.6311111 L16.8735484,8.47022222 L18.1741935,8.47022222 L18.1741935,9.51022222 C18.1741935,9.76444444 18.0464516,9.89155556 17.7909677,9.89155556 L17.28,9.86844444 L17.4658065,10.5502222 L18.0232258,10.5502222 C18.5922581,10.5502222 18.8825806,10.2497778 18.8825806,9.66044444 L18.8825806,4.264 L16.1419355,4.264 L16.1419355,10.6311111 L16.8735484,10.6311111 Z M20.2296774,8.736 L20.2296774,4.58755556 L19.5793548,4.58755556 L19.5793548,8.736 L20.2296774,8.736 Z M18.1741935,6.07822222 L16.8735484,6.07822222 L16.8735484,4.93422222 L18.1741935,4.93422222 L18.1741935,6.07822222 Z M18.1741935,7.82311111 L16.8735484,7.82311111 L16.8735484,6.72533333 L18.1741935,6.72533333 L18.1741935,7.82311111 Z M23.6903226,10.4693333 C26.1290323,8.89777778 27.7316129,6.63288889 28.4980645,3.68622222 C28.556129,3.82488889 28.6141935,3.98666667 28.683871,4.17155556 C29.88,7.22222222 31.4129032,9.32533333 33.2941935,10.4577778 L33.8167742,9.78755556 C31.9819355,8.64355556 30.5303226,6.69066667 29.4387097,3.92888889 C28.7187097,2.05688889 27.8477419,0.751111111 26.8141935,0.0346666667 L26.1174194,0.473777778 C26.8606452,1.00533333 27.4993548,1.74488889 28.0335484,2.71555556 C27.2903226,5.78933333 25.676129,8.14666667 23.1909677,9.76444444 L23.6903226,10.4693333 Z" id="请输入"></path>
                            </g>
                        </g>
                    </g>
                </g>
            </g>
        </g>
    </g>
</svg>