<?xml version="1.0" encoding="UTF-8"?>
<svg width="100px" height="100px" viewBox="0 0 100 100" version="1.1" xmlns="http://www.w3.org/2000/svg" xmlns:xlink="http://www.w3.org/1999/xlink">
    <!-- Generator: Sketch 63.1 (92452) - https://sketch.com -->
    <title>lmage图片</title>
    <desc>Created with Sketch.</desc>
    <g id="lmage图片" stroke="none" stroke-width="1" fill="none" fill-rule="evenodd">
        <g id="2" transform="translate(30.000000, 30.000000)">
            <rect id="矩形" stroke="#C8D2DE" stroke-width="0.5" fill="#FFFFFF" x="0.25" y="0.25" width="39.5" height="39.5" rx="1.5"></rect>
            <g id="编组" transform="translate(9.000000, 9.000000)" fill="#1D7FFD">
                <path d="M24.9241057,21.177867 L16.635051,6.95307846 C16.3375691,6.44154916 15.5981541,6.44262333 15.3027682,6.9552268 L9.77709501,16.5192078 C9.64801387,16.741645 9.32876232,16.7502383 9.18906182,16.533172 L6.89368675,12.991052 C6.59301908,12.5278885 5.91678929,12.5214435 5.60762613,12.9792362 L0.09466825,21.1466879 C-0.150750792,21.5099258 0.109535357,22 0.547779654,22 L24.4524104,22 C24.8752287,22 25.1376666,21.5421507 24.9241057,21.177867 L24.9241057,21.177867 Z M4.11010049,5.94556701 C5.77971569,5.94556701 7.1332372,4.61461843 7.1332372,2.97306618 C7.1332372,1.33097685 5.77968774,0 4.11010049,0 C2.44101626,0 1.08749475,1.33097685 1.08749475,2.97306618 C1.08749475,4.61461843 2.4410442,5.94556701 4.11010049,5.94556701 Z" id="形状"></path>
            </g>
        </g>
    </g>
</svg>