<?xml version="1.0" encoding="UTF-8"?>
<svg width="70px" height="48px" viewBox="0 0 70 48" version="1.1" xmlns="http://www.w3.org/2000/svg" xmlns:xlink="http://www.w3.org/1999/xlink">
    <title>icon/Image</title>
    <g id="icon/Image" stroke="none" stroke-width="1" fill="none" fill-rule="evenodd">
        <g id="编组-6">
            <rect id="矩形备份-159" x="0" y="0" width="70" height="48"></rect>
            <g id="编组-26" transform="translate(21.000000, 13.000000)">
                <path d="M0.5,0.5 L27.5,0.5 L27.5,27.5 L0.5,27.5 L0.5,0.5 Z" id="矩形备份-106" stroke="#BCBFC2"></path>
                <path d="M16.0000224,11.9313498 L22.0891634,21.5 L5.89152842,21.5 L10.4999943,13.9588741 L12.5624282,17.3338564 L16.0000224,11.9313498 Z M10.5,6.5 C11.0522847,6.5 11.5522847,6.72385763 11.9142136,7.08578644 C12.2761424,7.44771525 12.5,7.94771525 12.5,8.5 C12.5,9.05228475 12.2761424,9.55228475 11.9142136,9.91421356 C11.5522847,10.2761424 11.0522847,10.5 10.5,10.5 C9.94771525,10.5 9.44771525,10.2761424 9.08578644,9.91421356 C8.72385763,9.55228475 8.5,9.05228475 8.5,8.5 C8.5,7.94771525 8.72385763,7.44771525 9.08578644,7.08578644 C9.44771525,6.72385763 9.94771525,6.5 10.5,6.5 Z" id="形状结合" stroke="#292D33"></path>
            </g>
        </g>
    </g>
</svg>