<?xml version="1.0" encoding="UTF-8"?>
<svg width="100px" height="100px" viewBox="0 0 100 100" version="1.1" xmlns="http://www.w3.org/2000/svg" xmlns:xlink="http://www.w3.org/1999/xlink">
    <!-- Generator: Sketch 63.1 (92452) - https://sketch.com -->
    <title>map地图</title>
    <desc>Created with Sketch.</desc>
    <g id="map地图" stroke="none" stroke-width="1" fill="none" fill-rule="evenodd">
        <g id="2" transform="translate(20.000000, 30.000000)">
            <rect id="矩形" stroke="#C8D2DE" stroke-width="0.5" fill="#FFFFFF" x="0.25" y="0.25" width="59.5" height="39.5" rx="1.5"></rect>
            <g id="编组" transform="translate(18.000000, 8.000000)" fill="#1D7FFD">
                <path d="M22.9254009,18.7182022 L20.5710328,11.1440637 C20.3519161,10.4574359 19.7306976,9.995412 19.0328177,10 L17.2081475,10 C16.0135392,11.960918 14.3442936,13.5715148 13.2326248,14.6397088 L13.0402608,14.8246024 C12.621773,15.2270413 12.0715742,15.4500413 11.5006518,15.4486184 C10.9256507,15.4486184 10.3729526,15.2247238 9.95686094,14.8217135 L9.73383022,14.6057635 C8.56082797,13.479068 6.93409759,11.9074721 5.77294383,10 L3.82072799,10 C3.10981754,10 2.48324058,10.4723798 2.27763412,11.1628419 L0.071023851,18.5535313 C-0.291401074,19.7697847 0.790994915,20.9224809 2.00581542,20.6148064 L6.97940071,19.3530518 C7.45334101,19.2331598 7.95516015,19.3371625 8.34406996,19.6361702 L12.288229,22.6681367 C12.6820177,22.9714779 13.1908065,23.0733138 13.6689286,22.9469217 L21.7949139,20.7931998 C22.2221571,20.679808 22.585279,20.3938007 22.7985522,20.001624 C23.0118253,19.6094472 23.0585224,19.1450465 22.9254009,18.7182022 L22.9254009,18.7182022 Z" id="路径"></path>
                <path d="M11.025625,13.8048563 C11.2897239,14.06396 11.7074283,14.0651946 11.973,13.8076563 C13.6828125,12.1472375 17,9.06370259 17,5.62316365 C17,2.5172285 14.537375,0 11.5,0 C8.46262503,0 6,2.5172285 6,5.62246364 C6,9.07490271 9.2745625,12.102437 11.025625,13.8055563 L11.025625,13.8048563 Z M11.5,3.51193975 C12.245305,3.50219893 12.937823,3.90252358 13.3115625,4.5591516 C13.6869375,5.21645905 13.6869375,6.02916824 13.3115625,6.68647569 C12.937823,7.34310371 12.245305,7.74342836 11.5,7.73368755 C10.3681478,7.71531083 9.46084857,6.7743511 9.46361865,5.62176364 C9.46160712,4.46945257 10.3691024,3.52923085 11.5006875,3.51123975 L11.5,3.51193975 Z" id="形状"></path>
            </g>
        </g>
    </g>
</svg>