<?xml version="1.0" encoding="UTF-8"?>
<svg width="70px" height="48px" viewBox="0 0 70 48" version="1.1" xmlns="http://www.w3.org/2000/svg" xmlns:xlink="http://www.w3.org/1999/xlink">
    <title>icon/Button</title>
    <g id="icon/Button" stroke="none" stroke-width="1" fill="none" fill-rule="evenodd">
        <g id="编组-56">
            <rect id="矩形备份-138" x="0" y="0" width="70" height="48"></rect>
            <g id="编组-55" transform="translate(11.000000, 17.000000)">
                <path d="M47.5,0.5 L47.5,19.5 L0.5,19.5 L0.5,0.5 L47.5,0.5 Z" id="矩形" stroke="#BCBFC2"></path>
                <path d="M17.3183594,14 C18.9672852,14 19.9609375,13.1728516 19.9609375,11.8085938 C19.9609375,10.7773438 19.2519531,10.0307617 18.1992188,9.91259766 L18.1992188,9.86962891 C18.9726562,9.74072266 19.5795898,9.00488281 19.5795898,8.18310547 C19.5795898,7.01220703 18.6772461,6.24951172 17.3022461,6.24951172 L14.2084961,6.24951172 L14.2084961,14 L17.3183594,14 Z M16.7597656,9.54736328 L15.4116211,9.54736328 L15.4116211,7.23242188 L17.012207,7.23242188 C17.8823242,7.23242188 18.3764648,7.62988281 18.3764648,8.34960938 C18.3764648,9.11767578 17.8017578,9.54736328 16.7597656,9.54736328 Z M17.0712891,13.0170898 L15.4116211,13.0170898 L15.4116211,10.4658203 L17.0014648,10.4658203 C18.1401367,10.4658203 18.730957,10.8955078 18.730957,11.7333984 C18.730957,12.5712891 18.15625,13.0170898 17.0712891,13.0170898 Z M24.1235352,14 L24.1235352,7.28613281 L26.4921875,7.28613281 L26.4921875,6.24951172 L20.5463867,6.24951172 L20.5463867,7.28613281 L22.9204102,7.28613281 L22.9204102,14 L24.1235352,14 Z M28.640625,14 L28.640625,8.29052734 L28.6889648,8.29052734 L32.706543,14 L33.7915039,14 L33.7915039,6.24951172 L32.6206055,6.24951172 L32.6206055,11.9643555 L32.5776367,11.9643555 L28.5600586,6.24951172 L27.4697266,6.24951172 L27.4697266,14 L28.640625,14 Z" id="BTN" fill="#292D33" fill-rule="nonzero"></path>
            </g>
        </g>
    </g>
</svg>