<?xml version="1.0" encoding="UTF-8"?>
<svg width="100px" height="100px" viewBox="0 0 100 100" version="1.1" xmlns="http://www.w3.org/2000/svg" xmlns:xlink="http://www.w3.org/1999/xlink">
    <!-- Generator: Sketch 63.1 (92452) - https://sketch.com -->
    <title>texture多行文本输入框</title>
    <desc>Created with Sketch.</desc>
    <g id="texture多行文本输入框" stroke="none" stroke-width="1" fill="none" fill-rule="evenodd">
        <g id="2" transform="translate(5.000000, 14.000000)">
            <rect id="矩形" stroke="#C8D2DE" stroke-width="0.5" fill="#FFFFFF" x="0.25" y="0.25" width="89.5" height="63.5" rx="1.5"></rect>
            <path d="M7.57410296,21.9759563 L7.57410296,15.9530055 C7.91731669,16.4098361 8.31773271,17.010929 8.78679147,17.768306 L9.25585023,17.0349727 C8.69526781,16.3016393 8.13468539,15.6284153 7.57410296,15.0273224 L7.57410296,14.1016393 L8.90119605,14.1016393 L8.90119605,13.2721311 L7.57410296,13.2721311 L7.57410296,11 L6.76183047,11 L6.76183047,13.2721311 L5.36609464,13.2721311 L5.36609464,14.1016393 L6.76183047,14.1016393 C6.40717629,15.6163934 5.82371295,16.9748634 5,18.1530055 L5.35465419,19.0907104 C5.92667707,18.1530055 6.39573583,17.1191257 6.76183047,15.989071 L6.76183047,21.9759563 L7.57410296,21.9759563 Z M14.9303172,12.5027322 L14.9303172,11.6852459 L9.71346854,11.6852459 L9.71346854,12.5027322 L14.9303172,12.5027322 Z M11.7155486,21.8557377 C12.3790952,21.8557377 12.7223089,21.495082 12.7223089,20.7857923 L12.7223089,15.4360656 L15.525221,15.4360656 L15.525221,14.6065574 L9.10712428,14.6065574 L9.10712428,15.4360656 L11.8985959,15.4360656 L11.8985959,20.5693989 C11.8985959,20.9180328 11.7384295,21.0983607 11.4295372,21.0983607 C11.0977639,21.0983607 10.7545502,21.0743169 10.3884555,21.0502732 L10.5486219,21.8557377 L11.7155486,21.8557377 Z M14.7701508,21.0743169 L15.5137806,20.7256831 C15.1705668,19.1868852 14.7587103,17.7322404 14.2782111,16.3737705 L13.5345814,16.6262295 C13.9807592,17.9245902 14.3926157,19.4032787 14.7701508,21.0743169 Z M9.30161206,20.9661202 C9.98803952,19.7398907 10.525741,18.2972678 10.8918357,16.6142077 L10.1367655,16.4338798 C9.81643266,17.9245902 9.30161206,19.2710383 8.59230369,20.4852459 L9.30161206,20.9661202 Z M21.1653666,15.6284153 L21.1653666,11.4327869 L17.2641706,11.4327869 L17.2641706,15.6284153 L21.1653666,15.6284153 Z M22.8471139,18.0568306 L22.8471139,13.9453552 L25.6157046,13.9453552 L25.6157046,18.0568306 L26.3822153,18.0568306 L26.3822153,13.2 L24.4945398,13.2 C24.5631825,12.8874317 24.6089444,12.5748634 24.6432657,12.2382514 L26.7025481,12.2382514 L26.7025481,11.4448087 L21.7602704,11.4448087 L21.7602704,12.2382514 L23.899636,12.2382514 C23.8653146,12.5628415 23.8195528,12.8874317 23.75091,13.2 L22.1149246,13.2 L22.1149246,18.0568306 L22.8471139,18.0568306 Z M20.3645346,13.2120219 L18.0650026,13.2120219 L18.0650026,12.1540984 L20.3645346,12.1540984 L20.3645346,13.2120219 Z M20.3645346,14.9071038 L18.0650026,14.9071038 L18.0650026,13.8852459 L20.3645346,13.8852459 L20.3645346,14.9071038 Z M22.0806032,20.4371585 C22.950078,20.0765027 23.5907436,19.5836066 23.9797192,18.9464481 C24.3686947,18.2612022 24.5860634,17.347541 24.6089444,16.2054645 L24.6089444,14.5103825 L23.8538742,14.5103825 L23.8538742,16.2054645 C23.8309932,17.1071038 23.6593864,17.8404372 23.3619345,18.4054645 C23.0301612,18.9464481 22.4581383,19.379235 21.6344254,19.6918033 L22.0806032,20.4371585 Z M17.00104,22 C17.3671347,21.3508197 17.6531461,20.6415301 17.8590744,19.8721311 C18.3281331,20.5693989 18.8658346,21.0622951 19.4721789,21.326776 C20.1204715,21.6219794 21.676974,21.7777812 24.1609618,21.7941813 L26.8627145,21.7956284 L27,20.9300546 C26.4915352,20.9514268 25.7570861,20.972799 24.7966526,20.9772846 L24.425897,20.9781421 C22.0806032,20.9781421 20.5819033,20.8699454 19.9183567,20.6535519 C19.8725949,20.6295082 19.8153926,20.6054645 19.7467499,20.5814208 L19.7467499,19.2710383 L21.3140926,19.2710383 L21.3140926,18.5016393 L19.7467499,18.5016393 L19.7467499,17.2273224 L21.600104,17.2273224 L21.600104,16.4338798 L16.74935,16.4338798 L16.74935,17.2273224 L19.0145606,17.2273224 L19.0145606,20.1486339 C18.6599064,19.8721311 18.3281331,19.4874317 18.0306812,18.9945355 C18.0878835,18.6338798 18.1222049,18.2612022 18.1450858,17.852459 L17.4128965,17.7562842 C17.3556942,19.126776 17.023921,20.3530055 16.4061362,21.4469945 L17.00104,22 Z M26.2563703,20.4251366 L26.8398336,19.8240437 C26.3593344,19.2469945 25.7644306,18.6699454 25.0551222,18.0928962 L24.5059802,18.6459016 C25.24961,19.2710383 25.8330733,19.8721311 26.2563703,20.4251366 Z" id="标题" fill="#000000" fill-rule="nonzero"></path>
            <path d="M15.6717033,36.5434783 L15.6717033,35.826087 L12.4842033,35.826087 L12.4842033,35.0130435 L14.959478,35.0130435 L14.959478,34.3195652 L12.4842033,34.3195652 L12.4842033,33.5184783 L15.3798077,33.5184783 L15.3798077,32.8130435 L12.4842033,32.8130435 L12.4842033,32.0358696 L11.6785714,32.0358696 L11.6785714,32.8130435 L8.85302198,32.8130435 L8.85302198,33.5184783 L11.6785714,33.5184783 L11.6785714,34.3195652 L9.32005495,34.3195652 L9.32005495,35.0130435 L11.6785714,35.0130435 L11.6785714,35.826087 L8.5260989,35.826087 L8.5260989,36.5434783 L15.6717033,36.5434783 Z M7.81387363,34.5826087 L8.38598901,33.9847826 C7.8489011,33.375 7.19505495,32.7652174 6.41277473,32.1673913 L5.81730769,32.7532609 C6.65796703,33.398913 7.32348901,34.0086957 7.81387363,34.5826087 Z M6.72802198,42.5815217 C7.45192308,42.0434783 8.15247253,41.4217391 8.80631868,40.7282609 L8.58447802,39.8195652 C8.1875,40.2380435 7.82554945,40.6086957 7.47527473,40.9434783 L7.47527473,35.6945652 L5,35.6945652 L5,36.5195652 L6.66964286,36.5195652 L6.66964286,41.2663043 C6.66964286,41.4695652 6.57623626,41.648913 6.4010989,41.8163043 L6.72802198,42.5815217 Z M10.2190934,43 L10.2190934,41.098913 L13.9903846,41.098913 L13.9903846,41.7804348 C13.9903846,42.0554348 13.8385989,42.198913 13.5583791,42.198913 L12.6243132,42.1630435 L12.8228022,42.9282609 L13.8035714,42.9282609 C14.4574176,42.9282609 14.7960165,42.6054348 14.7960165,41.9597826 L14.7960165,37.2967391 L9.41346154,37.2967391 L9.41346154,43 L10.2190934,43 Z M13.9903846,38.8869565 L10.2190934,38.8869565 L10.2190934,38.0021739 L13.9903846,38.0021739 L13.9903846,38.8869565 Z M13.9903846,40.4293478 L10.2190934,40.4293478 L10.2190934,39.5565217 L13.9903846,39.5565217 L13.9903846,40.4293478 Z M19.6414835,43 L19.6414835,40.3456522 L20.7506868,40.0586957 L20.7506868,39.2456522 C20.4004121,39.3413043 20.0384615,39.4369565 19.6414835,39.5326087 L19.6414835,37.9184783 L20.7156593,37.9184783 L20.7156593,37.1413043 L19.6414835,37.1413043 L19.6414835,35.3597826 L18.8592033,35.3597826 L18.8592033,37.1413043 L17.7032967,37.1413043 C17.9951923,36.376087 18.2637363,35.5032609 18.5206044,34.5228261 L20.7740385,34.5228261 L20.7740385,33.7097826 L18.7190934,33.7097826 C18.8241758,33.2315217 18.9292582,32.7173913 19.0343407,32.1793478 L18.2637363,32 C18.1586538,32.5978261 18.0535714,33.1597826 17.9368132,33.7097826 L16.7809066,33.7097826 L16.7809066,34.5228261 L17.75,34.5228261 C17.481456,35.5869565 17.1895604,36.4836957 16.8626374,37.201087 L17.0377747,37.9184783 L18.8592033,37.9184783 L18.8592033,39.7 C18.1820055,39.8315217 17.4581044,39.951087 16.6875,40.0467391 L16.7925824,40.8836957 C17.5048077,40.776087 18.1936813,40.6565217 18.8592033,40.525 L18.8592033,43 L19.6414835,43 Z M20.9608516,35.9217391 C21.4162088,35.5630435 21.8598901,35.1684783 22.3035714,34.75 L22.3035714,35.4554348 L25.654533,35.4554348 L25.654533,34.7380435 L22.3152473,34.7380435 C22.8990385,34.1641304 23.459478,33.5304348 24.0199176,32.8369565 C24.9072802,34.0086957 25.8997253,35.001087 26.9972527,35.8141304 L27.4409341,35.1326087 C26.3784341,34.3673913 25.3392857,33.351087 24.323489,32.0597826 L23.7163462,32.0597826 C22.7706044,33.2554348 21.6964286,34.3076087 20.5054945,35.2043478 L20.9608516,35.9217391 Z M25.9581044,42.9402174 C26.518544,42.9402174 26.8104396,42.5934783 26.8104396,41.9119565 L26.8104396,36.2086957 L26.0748626,36.2086957 L26.0748626,41.7206522 C26.0748626,42.0554348 25.9464286,42.2347826 25.7012363,42.2347826 C25.4093407,42.2347826 25.1057692,42.2108696 24.790522,42.1869565 L24.9656593,42.9402174 L25.9581044,42.9402174 Z M21.9649725,43 L21.9649725,40.7641304 L23.2726648,40.7641304 L23.2726648,41.8402174 C23.2726648,42.1032609 23.1442308,42.2347826 22.8873626,42.2347826 L22.3736264,42.2108696 L22.5604396,42.9163043 L23.1208791,42.9163043 C23.6929945,42.9163043 23.9848901,42.6054348 23.9848901,41.9956522 L23.9848901,36.4119565 L21.2293956,36.4119565 L21.2293956,43 L21.9649725,43 Z M25.3392857,41.0391304 L25.3392857,36.7467391 L24.6854396,36.7467391 L24.6854396,41.0391304 L25.3392857,41.0391304 Z M23.2726648,38.2891304 L21.9649725,38.2891304 L21.9649725,37.1054348 L23.2726648,37.1054348 L23.2726648,38.2891304 Z M23.2726648,40.0945652 L21.9649725,40.0945652 L21.9649725,38.9586957 L23.2726648,38.9586957 L23.2726648,40.0945652 Z M28.8186813,42.8326087 C31.2706044,41.2065217 32.8818681,38.8630435 33.6524725,35.8141304 C33.7108516,35.9576087 33.7692308,36.125 33.8392857,36.3163043 C35.0418956,39.4728261 36.5831044,41.648913 38.4745879,42.8206522 L39,42.1271739 C37.1552198,40.9434783 35.6957418,38.9228261 34.5982143,36.0652174 C33.8743132,34.1282609 32.9986264,32.7771739 31.959478,32.0358696 L31.2589286,32.4902174 C32.0061813,33.0402174 32.6483516,33.8054348 33.1854396,34.8097826 C32.4381868,37.9902174 30.8152473,40.4293478 28.3166209,42.1032609 L28.8186813,42.8326087 Z" id="请输入" fill="#8E8D8D" fill-rule="nonzero"></path>
        </g>
    </g>
</svg>