<?xml version="1.0" encoding="UTF-8"?>
<svg width="70px" height="48px" viewBox="0 0 70 48" version="1.1" xmlns="http://www.w3.org/2000/svg" xmlns:xlink="http://www.w3.org/1999/xlink">
    <title>icon/Uploader</title>
    <defs>
        <path d="M8.5,1 L8.5,7.5 L15,7.5 L15,8.5 L8.5,8.5 L8.5,15 L7.5,15 L7.5,8.5 L1,8.5 L1,7.5 L7.5,7.5 L7.5,1 L8.5,1 Z" id="path-1"></path>
    </defs>
    <g id="icon/Uploader" stroke="none" stroke-width="1" fill="none" fill-rule="evenodd">
        <g id="编组-54">
            <polygon id="矩形备份-137" points="0 2.47968313e-13 70 2.47968313e-13 70 48 0 48"></polygon>
            <g id="编组-9" transform="translate(21.000000, 13.000000)">
                <path d="M14,0.5 C17.7279221,0.5 21.1029221,2.01103897 23.5459415,4.45405845 C25.988961,6.89707794 27.5,10.2720779 27.5,14 C27.5,17.7279221 25.988961,21.1029221 23.5459415,23.5459415 C21.1029221,25.988961 17.7279221,27.5 14,27.5 C10.2720779,27.5 6.89707794,25.988961 4.45405845,23.5459415 C2.01103897,21.1029221 0.5,17.7279221 0.5,14 C0.5,10.2720779 2.01103897,6.89707794 4.45405845,4.45405845 C6.89707794,2.01103897 10.2720779,0.5 14,0.5 Z" id="矩形备份-91" stroke="#BCBFC2"></path>
                <g id="icon/add备份-5" transform="translate(6.000000, 6.000000)">
                    <rect id="矩形" x="0" y="0" width="16" height="16"></rect>
                    <mask id="mask-2" fill="white">
                        <use xlink:href="#path-1"></use>
                    </mask>
                    <use id="形状结合" fill="#292D33" xlink:href="#path-1"></use>
                    <g id="编组" mask="url(#mask-2)" fill="#292D33">
                        <g id="colour/grey">
                            <rect id="矩形" x="0" y="0" width="16" height="16"></rect>
                        </g>
                    </g>
                </g>
            </g>
        </g>
    </g>
</svg>