<?xml version="1.0" encoding="UTF-8"?>
<svg width="70px" height="48px" viewBox="0 0 70 48" version="1.1" xmlns="http://www.w3.org/2000/svg" xmlns:xlink="http://www.w3.org/1999/xlink">
    <title>icon/Radio</title>
    <g id="icon/Radio" stroke="none" stroke-width="1" fill="none" fill-rule="evenodd">
        <g id="编组-61">
            <rect id="矩形备份-143" x="0" y="0" width="70" height="48"></rect>
            <g id="编组-12" transform="translate(13.000000, 17.000000)">
                <path d="M10,0 C15.5228475,-1.01453063e-15 20,4.4771525 20,10 C20,15.5228475 15.5228475,20 10,20 C4.4771525,20 6.76353751e-16,15.5228475 0,10 C-6.76353751e-16,4.4771525 4.4771525,1.01453063e-15 10,0 Z M10,6 C7.790861,6 6,7.790861 6,10 C6,12.209139 7.790861,14 10,14 C12.209139,14 14,12.209139 14,10 C14,7.790861 12.209139,6 10,6 Z" id="形状结合备份-7" fill="#292D33"></path>
                <rect id="矩形备份-127" stroke="#BCBFC2" x="24.5" y="0.5" width="19" height="19" rx="9.5"></rect>
            </g>
        </g>
    </g>
</svg>