<?xml version="1.0" encoding="UTF-8"?>
<svg width="70px" height="48px" viewBox="0 0 70 48" version="1.1" xmlns="http://www.w3.org/2000/svg" xmlns:xlink="http://www.w3.org/1999/xlink">
    <title>icon/Mpa</title>
    <g id="icon/Mpa" stroke="none" stroke-width="1" fill="none" fill-rule="evenodd">
        <g id="编组">
            <rect id="矩形备份-193" x="0" y="0" width="70" height="48"></rect>
            <g id="编组-52" transform="translate(20.000000, 15.000000)" fill-rule="nonzero">
                <path d="M30,4 L30,23 L20,29 L10,23 L0,29 L0,10 L10,4 L20,10 L30,4 Z M10.5,5.465 L10.4997833,12.6340362 C10.130189,12.7666163 9.79554768,12.9204881 9.50000991,13.0962337 L9.5,5.465 L1,10.565 L1,27.233 L9.5,22.133 L9.4994656,17.9198942 C9.79485613,18.0952905 10.1296644,18.248526 10.5000579,18.380179 L10.5,22.133 L19.5,27.533 L19.5009543,18.3798191 C19.8713599,18.2480994 20.2061619,18.0947878 20.5015256,17.9193055 L20.5,27.533 L29,22.433 L29,5.765 L20.5,10.866 L20.5003925,13.0964628 C20.2050342,12.9207847 19.8706081,12.7669592 19.501258,12.634405 L19.5,10.866 L10.5,5.465 Z M10.4995361,13.7115283 L10.4993937,14.8457557 C10.1794443,15.0434759 10,15.2654512 10,15.5 C10,15.7345171 10.1793957,15.9564641 10.499264,16.1541641 L10.4997404,17.2885613 C10.0895512,17.1085777 9.7507998,16.893632 9.49967437,16.6428048 L9.49953588,14.3573335 C9.75063357,14.1064887 10.0893633,13.8915267 10.4995361,13.7115283 Z M20.5012036,14.3580727 L20.500419,16.6427115 C20.2493947,16.8934682 19.9107979,17.1083662 19.5008013,17.2883236 L19.5017575,16.1535324 C19.8209862,15.9559913 20,15.7342673 20,15.5 C20,15.2657024 19.8209398,15.0439513 19.5016335,14.8463909 L19.5012934,13.7118924 C19.9114961,13.8919934 20.2502008,14.1070801 20.5012036,14.3580727 Z" id="形状结合" fill="#BCBFC2"></path>
                <path d="M17.7803166,13.2195309 C19.7034663,13.5616631 21,14.3091399 21,15.5 C21,17.2038013 18.3460044,18 15,18 C11.6539956,18 9,17.2038013 9,15.5 C9,14.3094289 10.2959045,13.5620259 12.2182833,13.21978 L12.7498595,14.160115 C11.1186466,14.4071451 10,14.9143815 10,15.5 C10,16.3284271 12.2385763,17 15,17 C17.7614237,17 20,16.3284271 20,15.5 C20,14.9143815 18.8813534,14.4071451 17.2501405,14.160115 L17.7803166,13.2195309 Z M15,1.3500312e-13 C17.7614237,1.3500312e-13 20,2.23857625 20,5 C20,5.64433221 19.7958333,6.51231481 19.3875,7.60394781 L19.2,8.0854834 L18.9875,8.59440476 L18.75,9.13071187 L18.4875,9.69440476 L18.2,10.2854834 L17.8875,10.9039478 L17.55,11.549798 L17.1875,12.2230339 L16.8,12.9236556 L16.3875,13.6516631 L15.95,14.4070563 L15.4875,15.1898353 L15,16 L14.5125,15.1898353 L14.05,14.4070563 L13.6125,13.6516631 L13.2,12.9236556 L12.8125,12.2230339 L12.45,11.549798 L12.1125,10.9039478 L11.8,10.2854834 L11.5125,9.69440476 C11.4666667,9.5981738 11.421875,9.50308391 11.378125,9.40913509 L11.128125,8.85913509 C10.3760417,7.16082922 10,5.87445085 10,5 C10,2.23857625 12.2385763,1.3500312e-13 15,1.3500312e-13 Z M15,3 C13.8954305,3 13,3.8954305 13,5 C13,6.1045695 13.8954305,7 15,7 C16.1045695,7 17,6.1045695 17,5 C17,3.8954305 16.1045695,3 15,3 Z" id="形状结合" fill="#292D33"></path>
            </g>
        </g>
    </g>
</svg>