<?xml version="1.0" encoding="UTF-8"?>
<svg width="70px" height="48px" viewBox="0 0 70 48" version="1.1" xmlns="http://www.w3.org/2000/svg" xmlns:xlink="http://www.w3.org/1999/xlink">
    <title>icon/CheckboxLabel</title>
    <g id="icon/CheckboxLabel" stroke="none" stroke-width="1" fill="none" fill-rule="evenodd">
        <g id="编组-60">
            <rect id="矩形备份-142" x="0" y="0" width="70" height="48"></rect>
            <g id="编组-11" transform="translate(13.000000, 12.000000)">
                <path d="M43.5,0.5 L43.5,13.5 L0.5,13.5 L0.5,0.5 L43.5,0.5 Z" id="矩形备份-124" stroke="#BCBFC2"></path>
                <path d="M43.5,16.5 L43.5,29.5 L0.5,29.5 L0.5,16.5 L43.5,16.5 Z" id="矩形备份-125" stroke="#BCBFC2"></path>
                <path d="M44,16 L44,30 L28,30 L44,16 Z M41.9497475,23 L37.828,27.121 L35.7071068,25 L35,25.7071068 L37.8284271,28.5355339 L42.6568542,23.7071068 L41.9497475,23 Z M32,22 L32,23 L12,23 L12,22 L32,22 Z M32,6 L32,7 L12,7 L12,6 L32,6 Z" id="形状结合" fill="#292D33"></path>
            </g>
        </g>
    </g>
</svg>