<?xml version="1.0" encoding="UTF-8"?>
<svg width="100px" height="100px" viewBox="0 0 100 100" version="1.1" xmlns="http://www.w3.org/2000/svg" xmlns:xlink="http://www.w3.org/1999/xlink">
    <!-- Generator: Sketch 63.1 (92452) - https://sketch.com -->
    <title>checkbox多选框组件</title>
    <desc>Created with Sketch.</desc>
    <g id="checkbox多选框组件" stroke="none" stroke-width="1" fill="none" fill-rule="evenodd">
        <g id="Group-2" transform="translate(34.000000, 34.000000)" fill="#1D7FFD">
            <path d="M30.5,0 C31.3284271,-1.52179594e-16 32,0.671572875 32,1.5 L32,30.5 C32,31.3284271 31.3284271,32 30.5,32 L1.5,32 C0.671572875,32 1.01453063e-16,31.3284271 0,30.5 L0,1.5 C-1.01453063e-16,0.671572875 0.671572875,1.52179594e-16 1.5,0 L30.5,0 Z M14.6716475,22.6228923 C15.2461092,22.7586115 15.8716379,22.5780803 16.3018958,22.0904979 L16.3018958,22.0904979 L24.8733148,12.3770844 C25.5187017,11.6457107 25.4803345,10.5004281 24.7876192,9.81902411 C24.0949039,9.13762009 23.0101578,9.17812848 22.3647709,9.90950212 L22.3647709,9.90950212 L14.533,18.783 L10.9302392,15.1707512 C10.3021155,14.5409511 9.30368738,14.5009194 8.62852099,15.0528091 L8.50588484,15.1632256 C7.83433232,15.8282319 7.83095095,16.9097896 8.49833234,17.5789523 L8.49833234,17.5789523 L13.0697608,22.1625821 C13.5015959,22.5955697 14.1084576,22.7497996 14.6649709,22.6245721 Z" id="多选_选中"></path>
        </g>
    </g>
</svg>